<svg aria-hidden="true" style="position: absolute; width: 0; height: 0; overflow: hidden;" version="1.1" xmlns="http://www.w3.org/2000/svg" xmlns:xlink="http://www.w3.org/1999/xlink">
<defs>
<symbol id="icon-about-us" viewBox="0 0 32 32">
<path stroke-linejoin="round" stroke-linecap="round" stroke-miterlimit="4" stroke-width="2.6667" d="M13.333 8h-6.667c-1.473 0-2.667 1.194-2.667 2.667v0 12c0 1.473 1.194 2.667 2.667 2.667v0h18.667c1.473 0 2.667-1.194 2.667-2.667v0-12c0-1.473-1.194-2.667-2.667-2.667v0h-6.667M13.333 8v-1.333c0-1.473 1.194-2.667 2.667-2.667s2.667 1.194 2.667 2.667v0 1.333M13.333 8c0 1.473 1.194 2.667 2.667 2.667s2.667-1.194 2.667-2.667v0M12 18.667c1.473 0 2.667-1.194 2.667-2.667s-1.194-2.667-2.667-2.667v0c-1.473 0-2.667 1.194-2.667 2.667s1.194 2.667 2.667 2.667v0zM12 18.667c1.741 0 3.223 1.113 3.773 2.667M12 18.667c-0 0-0.001 0-0.001 0-1.731 0-3.206 1.1-3.763 2.639l-0.009 0.028M20 14.667h4M20 20h2.667"></path>
</symbol>
<symbol id="icon-analytics" viewBox="0 0 32 32">
<path stroke-linejoin="round" stroke-linecap="round" stroke-miterlimit="4" stroke-width="2.6667" d="M12 25.333v-8c0-1.473-1.194-2.667-2.667-2.667v0h-2.667c-1.473 0-2.667 1.194-2.667 2.667v0 8c0 1.473 1.194 2.667 2.667 2.667v0h2.667c1.473 0 2.667-1.194 2.667-2.667v0zM12 25.333v-13.333c0-1.473 1.194-2.667 2.667-2.667v0h2.667c1.473 0 2.667 1.194 2.667 2.667v0 13.333M12 25.333c0 1.473 1.194 2.667 2.667 2.667v0h2.667c1.473 0 2.667-1.194 2.667-2.667v0M20 25.333v-18.667c0-1.473 1.194-2.667 2.667-2.667v0h2.667c1.473 0 2.667 1.194 2.667 2.667v0 18.667c0 1.473-1.194 2.667-2.667 2.667v0h-2.667c-1.473 0-2.667-1.194-2.667-2.667v0z"></path>
</symbol>
<symbol id="icon-apple-podcast" viewBox="0 0 28 32">
<path d="M19.962 23.25c3.031-1.956 5.038-5.369 5.038-9.25 0-6.075-4.925-11-11-11s-11 4.925-11 11c0 3.881 2.006 7.288 5.037 9.25 0.075 1.081 0.25 2.375 0.45 3.569l0.012 0.063c-5-2.144-8.5-7.1-8.5-12.881 0-7.731 6.269-14 14-14s14 6.269 14 14c0 5.781-3.5 10.744-8.5 12.881l0.012-0.069c0.194-1.2 0.375-2.488 0.45-3.563zM19.819 20.869c-0.1-0.356-0.244-0.694-0.438-1.012-0.363-0.606-0.844-1.063-1.369-1.4 1.219-1.1 1.988-2.688 1.988-4.456 0-3.313-2.688-6-6-6s-6 2.688-6 6c0 1.769 0.769 3.363 1.988 4.456-0.525 0.337-1.006 0.794-1.369 1.4-0.194 0.319-0.338 0.656-0.438 1.012-1.944-1.65-3.181-4.119-3.181-6.869 0-4.969 4.031-9 9-9s9 4.031 9 9c0 2.75-1.238 5.219-3.181 6.869zM14 19.5c2.056 0 4 0.538 4 2.738 0 2.063-0.806 6.506-1.288 8.306-0.319 1.188-1.531 1.462-2.713 1.462s-2.388-0.275-2.713-1.462c-0.488-1.781-1.287-6.231-1.287-8.3 0-2.194 1.944-2.738 4-2.738zM14 17.5c-1.931 0-3.5-1.569-3.5-3.5s1.569-3.5 3.5-3.5 3.5 1.569 3.5 3.5-1.569 3.5-3.5 3.5z"></path>
</symbol>
<symbol id="icon-checkmark" viewBox="0 0 32 32">
<path stroke-linejoin="round" stroke-linecap="round" stroke-miterlimit="4" stroke-width="2" d="M6 17l8 8 12-18"></path>
</symbol>
<symbol id="icon-close" viewBox="0 0 32 32">
<path stroke-linejoin="round" stroke-linecap="round" stroke-miterlimit="4" stroke-width="2.6667" d="M8 24l16-16M8 8l16 16"></path>
</symbol>
<symbol id="icon-distribution" viewBox="0 0 32 32">
<path stroke-linejoin="round" stroke-linecap="round" stroke-miterlimit="4" stroke-width="2.6667" d="M5.333 8c0-1.473 1.194-2.667 2.667-2.667v0h2.667c1.473 0 2.667 1.194 2.667 2.667v0 2.667c0 1.473-1.194 2.667-2.667 2.667v0h-2.667c-1.473 0-2.667-1.194-2.667-2.667v0-2.667zM18.667 8c0-1.473 1.194-2.667 2.667-2.667v0h2.667c1.473 0 2.667 1.194 2.667 2.667v0 2.667c0 1.473-1.194 2.667-2.667 2.667v0h-2.667c-1.473 0-2.667-1.194-2.667-2.667v0-2.667zM5.333 21.333c0-1.473 1.194-2.667 2.667-2.667v0h2.667c1.473 0 2.667 1.194 2.667 2.667v0 2.667c0 1.473-1.194 2.667-2.667 2.667v0h-2.667c-1.473 0-2.667-1.194-2.667-2.667v0-2.667zM18.667 21.333c0-1.473 1.194-2.667 2.667-2.667v0h2.667c1.473 0 2.667 1.194 2.667 2.667v0 2.667c0 1.473-1.194 2.667-2.667 2.667v0h-2.667c-1.473 0-2.667-1.194-2.667-2.667v0-2.667z"></path>
</symbol>
<symbol id="icon-down" viewBox="0 0 32 32">
<path d="M8.469 11.669c0.29-0.289 0.689-0.468 1.131-0.468s0.842 0.179 1.131 0.468l5.269 5.269 5.269-5.269c0.291-0.301 0.699-0.488 1.151-0.488 0.884 0 1.6 0.716 1.6 1.6 0 0.452-0.187 0.86-0.488 1.15l-6.4 6.4c-0.29 0.289-0.689 0.468-1.131 0.468s-0.842-0.179-1.131-0.468l-6.4-6.4c-0.289-0.29-0.468-0.689-0.468-1.131s0.179-0.842 0.468-1.131v0z"></path>
</symbol>
<symbol id="icon-facebook" viewBox="0 0 32 32">
<path d="M29.333 16c0-7.364-5.969-13.333-13.333-13.333s-13.333 5.969-13.333 13.333c0 6.655 4.876 12.171 11.251 13.171v-9.316h-3.387v-3.855h3.387v-2.937c0-3.341 1.989-5.187 5.036-5.187 1.459 0 2.984 0.26 2.984 0.26v3.28h-1.68c-1.657 0-2.173 1.028-2.173 2.083v2.501h3.697l-0.591 3.853h-3.107v9.317c6.373-1 11.249-6.516 11.249-13.171z"></path>
</symbol>
<symbol id="icon-google-podcast" viewBox="0 0 32 32">
<path d="M2 12.906c-1.104 0-2 0.896-2 2v2.172c0 2.667 4 2.667 4 0v-2.172c0-1.104-0.896-2-2-2zM30 12.906c-1.104 0-2 0.896-2 2v2.172c0 2.667 4 2.667 4 0v-2.172c0-1.104-0.896-2-2-2zM8.906 19.453c-1.104 0-2 0.896-2 2v2.172c0 2.667 4 2.667 4 0v-2.156c0-1.109-0.891-2-2-2zM8.906 6.359c-1.104 0-2 0.896-2 2v7.146c0 2.667 4 2.667 4 0v-7.156c0-1.109-0.891-2-2-2zM23.094 6.359c-1.109 0-2 0.896-2 2v2.188c0 2.667 4 2.667 4 0v-2.188c0-1.104-0.896-2-2-2zM16 0c-1.104 0-2 0.896-2 2v2.172c0 2.667 4 2.667 4 0v-2.172c0-1.104-0.896-2-2-2zM16 25.813c-1.104 0-2 0.896-2 2v2.188c-0.010 2.667 3.99 2.682 4 0.016v-2.188c0-1.094-0.896-2-2-2zM23.094 14.531c-1.109 0-2 0.906-2 2v7.109c0 2.667 4 2.667 4 0v-7.109c0-1.104-0.896-2-2-2zM16 8.172c-1.104 0-2 0.906-2 2v11.641c0 2.667 4 2.667 4 0v-11.625c0-1.109-0.896-2-2-2z"></path>
</symbol>
<symbol id="icon-humbergur" viewBox="0 0 32 32">
<path stroke-linejoin="round" stroke-linecap="round" stroke-miterlimit="4" stroke-width="2.6667" d="M5.333 8h21.333M5.333 16h21.333M5.333 24h21.333"></path>
</symbol>
<symbol id="icon-instagram" viewBox="0 0 32 32">
<path d="M16.42 2.667c3.24 0 3.712 0.017 5.077 0.080 1.419 0.065 2.388 0.291 3.236 0.62 0.925 0.353 1.713 0.876 2.362 1.536l0.001 0.001c0.661 0.65 1.184 1.438 1.522 2.318l0.015 0.045c0.329 0.848 0.555 1.817 0.62 3.236 0.064 1.423 0.080 1.876 0.080 5.497v0.107c0 3.524-0.016 3.983-0.080 5.391-0.065 1.419-0.291 2.388-0.62 3.236-0.353 0.925-0.876 1.713-1.536 2.362l-0.001 0.001c-0.65 0.661-1.438 1.184-2.318 1.522l-0.045 0.015c-0.848 0.329-1.817 0.555-3.236 0.62-1.423 0.064-1.876 0.080-5.497 0.080h-0.107c-3.524 0-3.983-0.016-5.391-0.080-1.419-0.065-2.388-0.291-3.236-0.62-0.925-0.353-1.713-0.876-2.362-1.536l-0.001-0.001c-0.661-0.65-1.184-1.438-1.522-2.318l-0.015-0.045c-0.329-0.848-0.555-1.817-0.62-3.236-0.063-1.365-0.080-1.839-0.080-5.077v-0.84c0-3.24 0.017-3.712 0.080-5.077 0.065-1.419 0.291-2.388 0.62-3.236 0.353-0.925 0.876-1.713 1.536-2.362l0.001-0.001c0.65-0.661 1.438-1.184 2.318-1.522l0.045-0.015c0.848-0.329 1.817-0.555 3.236-0.62 1.365-0.063 1.839-0.080 5.077-0.080h0.84zM16.312 5.069h-0.624c-3.275 0-3.712 0.015-5.076 0.077-1.3 0.060-2.005 0.276-2.476 0.459-0.623 0.243-1.067 0.531-1.533 0.997s-0.755 0.911-0.997 1.533c-0.183 0.471-0.4 1.176-0.459 2.476-0.063 1.364-0.077 1.801-0.077 5.076v0.624c0 3.275 0.015 3.712 0.077 5.076 0.060 1.3 0.276 2.005 0.459 2.476 0.243 0.621 0.532 1.067 0.997 1.533 0.467 0.467 0.911 0.755 1.533 0.997 0.471 0.183 1.176 0.4 2.476 0.459 1.405 0.064 1.827 0.077 5.388 0.077h0.107c3.463 0 3.889-0.013 5.28-0.077 1.301-0.060 2.007-0.276 2.477-0.459 0.621-0.243 1.067-0.531 1.533-0.997s0.755-0.911 0.997-1.533c0.183-0.471 0.4-1.176 0.459-2.476 0.064-1.407 0.077-1.827 0.077-5.388v-0.107c0-3.463-0.013-3.889-0.077-5.28-0.060-1.301-0.276-2.007-0.459-2.477-0.226-0.601-0.565-1.113-0.996-1.532l-0.001-0.001c-0.42-0.432-0.932-0.772-1.505-0.988l-0.028-0.009c-0.471-0.183-1.176-0.4-2.476-0.459-1.364-0.063-1.801-0.077-5.076-0.077zM16 9.153c3.781 0 6.847 3.065 6.847 6.847s-3.065 6.847-6.847 6.847v0c-3.781 0-6.847-3.065-6.847-6.847s3.065-6.847 6.847-6.847v0zM16 11.556c-2.454 0-4.444 1.99-4.444 4.444s1.99 4.444 4.444 4.444v0c2.454 0 4.444-1.99 4.444-4.444s-1.99-4.444-4.444-4.444v0zM23.117 7.283c0.884 0 1.6 0.716 1.6 1.6s-0.716 1.6-1.6 1.6v0c-0.884 0-1.6-0.716-1.6-1.6s0.716-1.6 1.6-1.6v0z"></path>
</symbol>
<symbol id="icon-M" viewBox="0 0 32 32">
<path d="M31.024 7.084c-0.467-3.437-3.489-6.147-7.072-6.672-0.605-0.089-2.896-0.412-8.201-0.412h-0.040c-5.307 0-6.447 0.323-7.051 0.412-3.484 0.511-6.665 2.945-7.437 6.424-0.369 1.713-0.409 3.613-0.341 5.355 0.099 2.499 0.117 4.993 0.347 7.481 0.157 1.653 0.433 3.293 0.827 4.907 0.733 2.983 3.703 5.464 6.613 6.476 3.115 1.056 6.465 1.231 9.675 0.507 0.353-0.081 0.703-0.176 1.048-0.284 0.78-0.245 1.693-0.52 2.365-1.004 0.018-0.013 0.029-0.034 0.031-0.057v-2.412c0 0 0 0 0-0 0-0.022-0.010-0.042-0.027-0.055l-0-0c-0.012-0.010-0.027-0.015-0.044-0.015-0.006 0-0.012 0.001-0.018 0.002l0-0c-1.87 0.462-4.018 0.727-6.227 0.727-0.018 0-0.036-0-0.054-0h0.003c-3.64 0-4.617-1.712-4.899-2.424-0.212-0.559-0.362-1.207-0.423-1.882l-0.002-0.029c-0-0.001-0-0.002-0-0.003 0-0.039 0.032-0.071 0.071-0.071 0.006 0 0.012 0.001 0.018 0.002l-0.001-0c2.023 0.484 4.096 0.728 6.176 0.728 0.501 0 1 0 1.5-0.013 2.093-0.059 4.299-0.165 6.357-0.563 0.051-0.011 0.103-0.020 0.147-0.032 3.247-0.619 6.337-2.56 6.652-7.472 0.011-0.193 0.040-2.027 0.040-2.227 0.003-0.683 0.223-4.84-0.032-7.393zM26.027 19.344h-3.415v-8.291c0-1.745-0.733-2.635-2.227-2.635-1.64 0-2.461 1.053-2.461 3.133v4.537h-3.395v-4.539c0-2.080-0.823-3.133-2.464-3.133-1.483 0-2.224 0.891-2.227 2.636v8.291h-3.409v-8.541c0-1.747 0.449-3.133 1.348-4.16 0.928-1.027 2.144-1.552 3.653-1.552 1.748 0 3.069 0.667 3.949 1.997l0.851 1.413 0.851-1.413c0.88-1.332 2.2-1.997 3.947-1.997 1.507 0 2.724 0.527 3.653 1.552 0.9 1.027 1.349 2.413 1.349 4.16z"></path>
</symbol>
<symbol id="icon-our-customers" viewBox="0 0 32 32">
<path stroke-linejoin="round" stroke-linecap="round" stroke-miterlimit="4" stroke-width="2.6667" d="M5.757 8.424c-1.086 1.086-1.757 2.586-1.757 4.243s0.672 3.157 1.757 4.243l10.243 10.243 10.243-10.243c1.086-1.086 1.757-2.586 1.757-4.243 0-3.314-2.686-6-6-6-1.657 0-3.157 0.672-4.243 1.757l-1.757 1.757-1.757-1.757c-1.086-1.086-2.586-1.757-4.243-1.757s-3.157 0.672-4.243 1.757v0z"></path>
</symbol>
<symbol id="icon-p" viewBox="0 0 32 32">
<path d="M20.394 13.675c0 1.281-1.044 2.325-2.325 2.325h-4.394v-4.65h4.394c1.281 0 2.325 1.044 2.325 2.325zM31.5 16c0 8.563-6.938 15.5-15.5 15.5s-15.5-6.938-15.5-15.5 6.938-15.5 15.5-15.5 15.5 6.938 15.5 15.5zM23.494 13.675c0-2.994-2.431-5.425-5.425-5.425h-7.494v15.5h3.1v-4.65h4.394c2.994 0 5.425-2.431 5.425-5.425z"></path>
</symbol>
<symbol id="icon-blog" viewBox="0 0 32 32">
<path stroke-linejoin="round" stroke-linecap="round" stroke-miterlimit="4" stroke-width="2.6667" d="M20.309 6.976l4.715 4.715M22.309 4.976c0.603-0.603 1.437-0.976 2.357-0.976 1.841 0 3.334 1.493 3.334 3.334 0 0.921-0.373 1.754-0.976 2.357l-18.357 18.357h-4.667v-4.763l18.309-18.309z"></path>
</symbol>
<symbol id="icon-podcast-hosting" viewBox="0 0 32 32">
<path stroke-linejoin="round" stroke-linecap="round" stroke-miterlimit="4" stroke-width="2.6667" d="M4 20c0 2.946 2.388 5.333 5.333 5.333v0h12c3.682 0 6.667-2.985 6.667-6.667s-2.985-6.667-6.667-6.667c-0.047 0-0.094 0-0.14 0.001l0.007-0c-0.617-3.098-3.313-5.4-6.547-5.4-3.683 0-6.669 2.986-6.669 6.669 0 0.541 0.064 1.067 0.186 1.571l-0.009-0.046c-2.399 0.555-4.16 2.674-4.16 5.204 0 0 0 0 0 0v-0z"></path>
</symbol>
<symbol id="icon-private-podcasting" viewBox="0 0 32 32">
<path stroke-linejoin="round" stroke-linecap="round" stroke-miterlimit="4" stroke-width="2.6667" d="M12 16l2.667 2.667 5.333-5.333M27.491 7.979c-0.253 0.014-0.548 0.022-0.845 0.022-4.099 0-7.836-1.547-10.66-4.089l0.014 0.013c-2.81 2.529-6.547 4.076-10.645 4.076-0.297 0-0.593-0.008-0.886-0.024l0.041 0.002c-0.324 1.203-0.509 2.584-0.509 4.008 0 0.005 0 0.009 0 0.014v-0.001c0 7.455 5.099 13.72 12 15.496 6.901-1.776 12-8.040 12-15.496 0-1.389-0.177-2.736-0.509-4.021z"></path>
</symbol>
<symbol id="icon-reviews" viewBox="0 0 32 32">
<path stroke-linejoin="round" stroke-linecap="round" stroke-miterlimit="4" stroke-width="2.6667" d="M14.732 3.903c0.4-1.228 2.137-1.228 2.536 0l2.025 6.232c0.179 0.538 0.678 0.92 1.267 0.92h6.553c1.292 0 1.828 1.653 0.784 2.413l-5.301 3.851c-0.335 0.245-0.549 0.637-0.549 1.078 0 0.147 0.024 0.289 0.068 0.422l-0.003-0.009 2.024 6.232c0.4 1.229-1.007 2.251-2.051 1.491l-5.301-3.851c-0.217-0.159-0.489-0.255-0.784-0.255s-0.567 0.096-0.788 0.257l0.004-0.003-5.301 3.851c-1.044 0.76-2.451-0.263-2.051-1.491l2.024-6.232c0.041-0.123 0.065-0.265 0.065-0.412 0-0.442-0.215-0.833-0.546-1.076l-0.004-0.003-5.301-3.851c-1.045-0.76-0.507-2.413 0.784-2.413h6.552c0 0 0 0 0 0 0.589 0 1.088-0.381 1.265-0.911l0.003-0.009 2.025-6.232z"></path>
</symbol>
<symbol id="icon-spotify" viewBox="0 0 31 32">
<path d="M15.5 0.5c-8.556 0-15.5 6.944-15.5 15.5s6.944 15.5 15.5 15.5 15.5-6.944 15.5-15.5-6.944-15.5-15.5-15.5zM21.794 23.306c-0.262 0-0.425-0.081-0.669-0.225-3.9-2.35-8.438-2.45-12.919-1.531-0.244 0.063-0.563 0.163-0.744 0.163-0.606 0-0.987-0.481-0.987-0.988 0-0.644 0.381-0.95 0.85-1.050 5.119-1.131 10.35-1.031 14.813 1.637 0.381 0.244 0.606 0.462 0.606 1.031s-0.444 0.962-0.95 0.962zM23.475 19.206c-0.325 0-0.544-0.144-0.769-0.262-3.906-2.313-9.731-3.244-14.912-1.837-0.3 0.081-0.463 0.163-0.744 0.163-0.669 0-1.213-0.544-1.213-1.212s0.325-1.113 0.969-1.294c1.738-0.488 3.513-0.85 6.112-0.85 4.056 0 7.975 1.006 11.063 2.844 0.506 0.3 0.706 0.688 0.706 1.231-0.006 0.675-0.531 1.219-1.212 1.219zM25.413 14.444c-0.325 0-0.525-0.081-0.806-0.244-4.45-2.656-12.406-3.294-17.556-1.856-0.225 0.063-0.506 0.162-0.806 0.162-0.825 0-1.456-0.644-1.456-1.475 0-0.85 0.525-1.331 1.087-1.494 2.2-0.644 4.662-0.95 7.344-0.95 4.563 0 9.344 0.95 12.838 2.987 0.488 0.281 0.806 0.669 0.806 1.412 0 0.85-0.688 1.456-1.45 1.456z"></path>
</symbol>
<symbol id="icon-twitter" viewBox="0 0 32 32">
<path d="M11.053 27.001c10.063 0 15.567-8.337 15.567-15.567 0-0.237 0-0.473-0.016-0.707 1.075-0.784 1.98-1.723 2.704-2.795l0.025-0.039c-0.915 0.417-1.977 0.72-3.090 0.856l-0.053 0.005c1.131-0.685 1.981-1.737 2.394-2.988l0.011-0.039c-1 0.604-2.163 1.064-3.403 1.316l-0.070 0.012c-1.001-1.064-2.418-1.726-3.99-1.726-3.024 0-5.476 2.452-5.476 5.476 0 0.44 0.052 0.868 0.15 1.278l-0.008-0.037c-4.557-0.235-8.566-2.401-11.254-5.688l-0.022-0.028c-0.466 0.788-0.741 1.737-0.741 2.75 0 1.89 0.958 3.557 2.415 4.54l0.019 0.012c-0.915-0.027-1.767-0.277-2.51-0.697l0.027 0.014v0.069c0.001 2.638 1.869 4.84 4.354 5.357l0.036 0.006c-0.431 0.122-0.925 0.192-1.436 0.192-0.366 0-0.724-0.036-1.069-0.105l0.035 0.006c0.72 2.191 2.728 3.754 5.107 3.8l0.005 0c-1.848 1.462-4.212 2.346-6.782 2.346-0.464 0-0.92-0.029-1.369-0.084l0.054 0.005c2.365 1.538 5.258 2.453 8.365 2.453 0.008 0 0.015 0 0.023-0h-0.001z"></path>
</symbol>
<symbol id="icon-youtube" viewBox="0 0 32 32">
<path d="M28.773 9.156c0.56 2.098 0.56 6.462 0.56 6.462s0 4.364-0.56 6.462c-0.314 1.157-1.202 2.051-2.332 2.368l-0.024 0.006c-2.080 0.56-10.418 0.56-10.418 0.56s-8.338 0-10.418-0.56c-1.153-0.323-2.042-1.217-2.35-2.35l-0.005-0.023c-0.56-2.098-0.56-6.462-0.56-6.462s0-4.364 0.56-6.462c0.314-1.157 1.202-2.051 2.332-2.368l0.024-0.006c2.080-0.56 10.418-0.56 10.418-0.56s8.338 0 10.418 0.56c1.156 0.311 2.044 1.218 2.356 2.373zM13.271 19.582l6.969-3.964-6.969-3.964v7.929z"></path>
</symbol>
</defs>
</svg>
