<svg fill="#fff" xmlns="http://www.w3.org/2000/svg" viewBox="0 0 547 144">
  <path d="M191.7 52.4v-8.6h37.9v8.6h-14.1v47.9h-9.8V52.4zM254.3 68.2c-1.2-.2-2.6-.4-4.6-.4-6.3 0-10 4.1-10 12.4v20h-9.3V60.6h9.1v5.6h.2c1.8-3.4 5.8-6.9 11.1-6.9 1.5 0 2.5.1 3.5.2v8.7zM298.8 100.2h-9v-5h-.2c-2.7 3.4-7 6.5-13.6 6.5-8.9 0-19-7.1-19-21.3 0-12.6 8.9-21 19.7-21 6.6 0 10.6 3.5 13 6.6h.2v-5.4h9v39.6h-.1zm-20.4-6.7c6.1 0 11.8-5.3 11.8-12.9 0-8-5.2-13.3-11.7-13.3-8.2 0-12.1 6.6-12.1 13.1 0 6.6 3.8 13.1 12 13.1zM309.6 60.6h9.2v5h.2c3.1-4.5 7.7-6.3 12.1-6.3 8.2 0 15.4 5.4 15.4 18.1v22.8h-9.3V77.9c0-6.8-3.2-10.4-8.5-10.4-5.8 0-9.8 4.1-9.8 11.8v21h-9.3V60.6zM374.6 70.8c-.4-2.9-2.6-4.8-5.3-4.8-3.2 0-5 2-5 4.2 0 2.4 1.2 4.1 8.1 6.4 8.5 2.7 11.5 7.1 11.5 12.7 0 7.3-5.5 12.4-14.6 12.4-9.5 0-14.2-5.2-14.9-12.6h8.6c.4 3.3 2.4 5.8 6.5 5.8 3.5 0 5.5-2.2 5.5-4.9 0-3-1.7-4.9-8.3-7.1-7.4-2.4-11.2-6.1-11.2-12.3 0-6.5 5.1-11.3 13.5-11.3 8.5 0 13 5 14 11.5h-8.4zM392 42.4h10.3v9.4H392v-9.4zm.5 18.2h9.3v39.7h-9.3V60.6zM430.5 70.8c-.4-2.9-2.6-4.8-5.3-4.8-3.2 0-5 2-5 4.2 0 2.4 1.2 4.1 8.1 6.4 8.5 2.7 11.5 7.1 11.5 12.7 0 7.3-5.5 12.4-14.6 12.4-9.5 0-14.2-5.2-14.9-12.6h8.6c.4 3.3 2.4 5.8 6.5 5.8 3.5 0 5.5-2.2 5.5-4.9 0-3-1.7-4.9-8.3-7.1-7.4-2.4-11.2-6.1-11.2-12.3 0-6.5 5.1-11.3 13.5-11.3 8.5 0 13 5 14 11.5h-8.4zM443.8 60.6h5V47.9h9.3v12.7h9.9v7.8h-10v17.7c0 5.4 1.7 6.9 5.5 6.9 1.6 0 3.4-.3 4.8-.7v7.5c-2.1.6-4.7.9-7 .9-9.9 0-12.5-6-12.5-14.1V68.4h-5v-7.8zM493.3 59.3c12.4 0 21.2 9.1 21.2 21.1 0 11.7-8.9 21.3-21.2 21.3-12.1 0-21.2-9.3-21.2-21.3 0-12.3 9.2-21.1 21.2-21.1zm0 34.1c7 0 11.8-5.6 11.8-13 0-7-4.5-12.9-11.8-12.9-7.1 0-11.8 5.5-11.8 12.9 0 7.6 5.4 13 11.8 13zM541.9 67.8c-6.3 0-10 4.1-10 12.4v20h-9.3V60.6h9.1v5.6h.2c1.8-3.4 5.8-6.9 11.1-6.9 1.5 0 2.5.1 3.5.2v8.7c-1.2-.2-2.6-.4-4.6-.4z"></path>
  <g>
    <path d="M72 119.9c-2.6 0-4.8-2.1-4.8-4.8V28.9c0-2.6 2.1-4.8 4.8-4.8 2.6 0 4.8 2.1 4.8 4.8v86.2c0 2.6-2.2 4.8-4.8 4.8zM52 76.8H29c-2.6 0-4.8-2.1-4.8-4.8 0-2.7 2.1-4.8 4.8-4.8h23c2.6 0 4.8 2.1 4.8 4.8 0 2.7-2.2 4.8-4.8 4.8zM115.1 76.8H92c-2.6 0-4.8-2.1-4.8-4.8 0-2.7 2.1-4.8 4.8-4.8h23c2.6 0 4.8 2.1 4.8 4.8 0 2.7-2.1 4.8-4.7 4.8z"></path>
    <path d="M72 144c-39.7 0-72-32.3-72-72S32.3 0 72 0s72 32.3 72 72-32.3 72-72 72zM72 9.6C37.6 9.6 9.6 37.6 9.6 72s28 62.4 62.4 62.4 62.4-28 62.4-62.4S106.4 9.6 72 9.6z"></path>
  </g>
</svg>